<svg width="100" height="48" viewBox="0 0 100 48" fill="none" xmlns="http://www.w3.org/2000/svg">
<g clip-path="url(#clip0_226_3649)">
<path d="M43.0092 15.0955V14.5173C43.2324 14.5173 43.4326 14.5173 43.6328 14.5173C45.4154 14.5173 47.198 14.5397 48.9793 14.503C49.4835 14.4924 49.7055 14.6796 49.9039 15.1117C52.4928 20.7585 55.098 26.3984 57.7006 32.039C57.7852 32.2217 57.8828 32.3977 58.0215 32.6688C58.1471 32.4425 58.2403 32.297 58.3118 32.1409C60.9076 26.4966 63.501 20.8517 66.0949 15.2068C66.1465 15.0937 66.2075 14.9843 66.2491 14.8674C66.3362 14.623 66.4916 14.513 66.7615 14.5142C68.7716 14.5248 70.7817 14.5248 72.7918 14.5304C72.8304 14.5304 72.8689 14.5552 72.9603 14.587C72.9777 14.7119 72.9995 14.8618 73.0194 15.006C72.9261 15.052 72.8733 15.098 72.8167 15.1024C72.4039 15.1329 71.9873 15.131 71.5782 15.1845C70.5106 15.3244 69.9473 15.8603 69.7683 16.9136C69.7024 17.299 69.6775 17.6957 69.6769 18.0874C69.6713 23.4762 69.6706 28.8655 69.6781 34.2543C69.6787 34.6864 69.7191 35.1241 69.7944 35.55C69.9517 36.4478 70.4373 36.9259 71.3351 37.1069C71.5981 37.1597 71.8673 37.1889 72.1353 37.2057C72.4001 37.2225 72.6669 37.2095 72.9765 37.2095C72.9883 37.4153 72.9964 37.567 73.0076 37.7641H63.0726C63.0626 37.5968 63.0539 37.4451 63.0452 37.294C63.1391 37.2604 63.1951 37.2262 63.2535 37.2219C63.6863 37.1877 64.1252 37.1939 64.5511 37.123C65.6118 36.9452 66.1204 36.4267 66.2541 35.3684C66.3318 34.7542 66.3716 34.1305 66.3729 33.5113C66.3822 28.7026 66.3785 23.894 66.3766 19.0853C66.3766 18.8889 66.3598 18.6918 66.2479 18.4729C66.1416 18.6862 66.0297 18.897 65.9302 19.1139C63.2859 24.8726 60.6428 30.6313 57.9991 36.39C57.8436 36.7288 57.6633 37.0584 57.5334 37.4059C57.3979 37.769 57.1827 37.894 56.7686 37.7348C53.8427 31.3637 50.9005 24.9572 47.9584 18.5513C47.918 18.5593 47.8769 18.5674 47.8365 18.5755C47.8228 18.7278 47.7974 18.8808 47.7974 19.0331C47.7955 24.1321 47.793 29.2305 47.8011 34.3295C47.8017 34.7411 47.8701 35.1533 47.9149 35.5649C48.0081 36.426 48.5472 36.888 49.3387 37.0832C49.6769 37.1666 50.0344 37.1802 50.3845 37.2076C50.6077 37.225 50.834 37.2107 51.1026 37.2107C51.115 37.4146 51.1237 37.5676 51.1355 37.7647H43.0304C43.013 37.6683 42.9893 37.5906 42.9881 37.5123C42.9868 37.4345 43.008 37.3562 43.0229 37.2561C43.4911 37.2182 43.945 37.2082 44.3901 37.1411C45.5609 36.9645 46.1143 36.3869 46.2237 35.2248C46.284 34.5863 46.3269 33.944 46.3281 33.303C46.3369 28.577 46.3362 23.8517 46.3281 19.1258C46.3275 18.5469 46.2908 17.9662 46.2318 17.3904C46.0931 16.0369 45.3986 15.3505 44.0451 15.195C43.7174 15.1577 43.3885 15.1316 43.0092 15.0955Z" fill="#1F3668"/>
<path d="M0.0671494 15.0856C0.0302587 14.7262 0.138651 14.5372 0.392326 14.5186C0.433362 14.5154 0.47502 14.5173 0.516677 14.5173C3.93446 14.5173 7.35223 14.4912 10.7688 14.5297C12.2566 14.5465 13.7482 14.6535 15.1876 15.1011C16.5163 15.5146 17.6976 16.1525 18.6116 17.2412C20.539 19.5355 20.401 23.5626 16.9732 25.334C16.6269 25.513 16.2669 25.6672 15.8031 25.8842C16.1065 25.9874 16.3148 26.0502 16.5169 26.1292C17.0945 26.3536 17.7013 26.5259 18.2398 26.8218C20.8244 28.24 21.6955 31.429 20.2524 34.0839C19.2209 35.9821 17.5944 37.0727 15.5022 37.4289C14.2823 37.6366 13.0369 37.7752 11.8015 37.7902C8.03243 37.8362 4.26274 37.807 0.49305 37.8063C0.369322 37.8063 0.246214 37.7958 0.0547143 37.7871C0.0385487 37.6204 0.0230049 37.4544 0 37.2107C0.291602 37.2107 0.516677 37.2325 0.735534 37.2057C1.14403 37.1566 1.56247 37.1243 1.95231 37.0043C2.63934 36.7923 3.0783 36.3054 3.18649 35.5854C3.26918 35.0352 3.3326 34.4756 3.33322 33.9198C3.34379 28.7412 3.34255 23.5632 3.33384 18.3846C3.33322 17.8903 3.2897 17.3911 3.21136 16.903C3.04535 15.8646 2.50504 15.3393 1.46174 15.1894C1.01346 15.1254 0.557091 15.1204 0.0665276 15.0862L0.0671494 15.0856ZM6.66333 36.1089C6.84613 36.1618 6.98043 36.2171 7.12032 36.2389C7.87637 36.3545 8.63118 36.4963 9.39221 36.5641C10.7613 36.6859 12.1242 36.6312 13.451 36.2221C14.7038 35.836 15.7223 35.1247 16.4025 33.9875C17.6447 31.9078 16.9434 29.0701 14.8599 27.6873C14.2151 27.2595 13.5138 26.9592 12.7683 26.7621C11.0417 26.3058 9.28527 26.335 7.52508 26.4575C7.24343 26.4774 6.96426 26.5277 6.66395 26.5663V36.1096L6.66333 36.1089ZM6.66395 16.0126V24.9379C6.90457 24.982 7.12281 25.0498 7.34353 25.0573C8.62372 25.102 9.90515 25.176 11.1847 25.1499C11.8581 25.1362 12.5476 25.005 13.1961 24.8129C15.8093 24.0407 17.0671 21.0252 15.8118 18.5997C15.1932 17.4041 14.2151 16.6114 12.9605 16.1544C11.3849 15.5805 9.75656 15.5786 8.11948 15.7527C7.63389 15.8043 7.15514 15.9225 6.66395 16.0114V16.0126Z" fill="#1F3668"/>
<path d="M85.7971 26.6428C86.2715 27.8695 86.8851 28.8985 87.5523 29.8976C89.2658 32.4649 91.3674 34.6889 93.6486 36.7512C95.387 38.323 97.2286 39.7661 99.1337 41.129C99.2829 41.2359 99.4284 41.3479 99.5353 41.568C99.3463 41.5014 99.153 41.443 98.9683 41.3665C95.632 39.9837 92.5972 38.1042 89.8354 35.7825C87.0045 33.4031 84.6139 30.6437 82.7424 27.4486C82.5024 27.0388 82.2587 26.8355 81.7607 26.9263C81.4075 26.9909 81.0326 26.9387 80.6546 26.9387C80.6291 27.0842 80.5961 27.1831 80.5961 27.2819C80.6005 29.7677 80.6054 32.2535 80.6204 34.7399C80.6222 35.0066 80.6657 35.2764 80.7198 35.5388C80.9126 36.4714 81.4429 36.985 82.3812 37.1249C82.868 37.1976 83.361 37.2231 83.846 37.2698C83.8877 37.7759 83.8877 37.7933 83.5016 37.797C82.4657 37.807 81.4299 37.8014 80.394 37.8014C78.4262 37.8014 76.4577 37.8039 74.4899 37.7995C74.031 37.7983 74.031 37.7883 74.0242 37.2723C74.4439 37.2337 74.871 37.2113 75.2919 37.1491C75.5754 37.1075 75.8689 37.0484 76.1263 36.9297C76.7263 36.6524 77.1242 36.1873 77.1976 35.5102C77.2623 34.9146 77.3263 34.3152 77.3275 33.7177C77.3375 28.6834 77.3369 23.6484 77.3282 18.6141C77.3269 18.057 77.2616 17.4999 77.2163 16.9434C77.1143 15.7105 76.2159 15.287 75.374 15.177C74.9462 15.121 74.5122 15.108 74.0882 15.0763C73.9732 14.5926 73.9875 14.5621 74.3556 14.5291C74.4787 14.5179 74.6043 14.5248 74.728 14.5248C77.5041 14.5248 80.2803 14.498 83.0558 14.5353C84.5641 14.5559 86.0787 14.6106 87.5579 14.9768C88.9326 15.3169 90.0486 16.0568 90.9614 17.1324C92.7439 19.2339 92.6768 23.409 89.333 25.3588C88.5036 25.8426 87.607 26.1559 86.6787 26.3878C86.4039 26.4562 86.1334 26.5451 85.7965 26.644L85.7971 26.6428ZM80.6533 16.132C80.5265 17.0827 80.5688 25.3657 80.7043 25.8538C82.0603 25.9389 83.4064 25.8351 84.7277 25.4291C86.6147 24.8496 88.5284 23.0957 88.271 20.1703C88.0982 18.2031 86.8578 16.5971 84.9596 16.0332C83.5215 15.606 82.0995 15.8361 80.6539 16.1314L80.6533 16.132Z" fill="#E62224"/>
<path d="M38.4231 14.0193H38.8788C39.0293 14.1785 39.0697 20.9898 38.9317 21.9952C38.7868 22.0045 38.632 22.0138 38.4199 22.0269C38.3447 21.6488 38.2857 21.287 38.1999 20.9313C38.0923 20.4893 37.9791 20.0472 37.8392 19.6145C36.9184 16.7718 34.4351 15.4686 32.144 15.3405C30.5771 15.2529 29.2516 15.8025 28.3189 17.1156C27.4205 18.3803 27.556 19.9142 28.6298 21.0352C29.4275 21.8677 30.3832 22.4895 31.368 23.0621C32.7645 23.8735 34.1902 24.6333 35.5897 25.4391C36.3253 25.8618 37.0502 26.3076 37.7472 26.7908C39.0517 27.6942 39.9893 28.8917 40.3443 30.4579C40.9374 33.0748 40.0483 35.1788 37.9934 36.824C36.7512 37.8188 35.2863 38.2254 33.7232 38.3137C32.3423 38.3914 31.0012 38.1856 29.6887 37.7448C28.9444 37.4949 28.1902 37.2623 27.4267 37.082C26.5146 36.8663 26.1981 37.0857 25.9376 37.9985C25.9152 38.0774 25.896 38.1576 25.8661 38.2727C25.7132 38.2876 25.5559 38.3031 25.4197 38.3168C25.2618 38.1228 25.2419 31.1219 25.3774 30.4156H25.8481C26.0334 31.1225 26.1863 31.8077 26.3934 32.4761C27.2054 35.0974 29.356 36.7923 32.0986 36.99C32.992 37.0547 33.8843 37.0472 34.7392 36.7382C36.1866 36.214 37.1547 35.2491 37.445 33.6928C37.6011 32.8547 37.3642 32.09 36.9607 31.3712C36.5149 30.576 35.8664 29.9623 35.0905 29.5028C33.523 28.5746 31.9332 27.6836 30.3626 26.7597C29.6134 26.3188 28.8791 25.8513 28.1542 25.3713C27.4429 24.9 26.8211 24.3243 26.2752 23.664C24.4933 21.5108 24.5673 18.0004 26.91 15.8454C28.5266 14.3582 30.4547 13.8664 32.5916 14.0417C33.7381 14.1356 34.8225 14.4738 35.8764 14.9233C36.1611 15.0446 36.4521 15.1571 36.7493 15.2442C37.5078 15.4661 37.9692 15.2249 38.2558 14.4757C38.3074 14.3408 38.3553 14.204 38.4218 14.0212L38.4231 14.0193Z" fill="#1F3668"/>
<path d="M13.0171 3.45322C13.1899 3.33944 13.2869 3.26358 13.3933 3.207C15.3138 2.18857 17.2369 1.17325 19.1569 0.15357C19.4193 0.0142973 19.6518 -0.0634219 19.9664 0.0659029C26.1423 2.60328 32.4935 4.61527 38.9343 6.3537C45.3358 8.08155 51.8139 9.45376 58.3653 10.4716C61.9049 11.0212 65.4601 11.4539 69.0296 11.776C73.86 12.2125 78.6985 12.422 83.5482 12.3959C84.6437 12.3903 85.7399 12.3953 86.8379 12.4239C85.812 12.5103 84.7867 12.611 83.7596 12.68C79.3955 12.971 75.0239 13.0512 70.6549 12.9132C67.4696 12.8125 64.2881 12.5743 61.1079 12.3518C57.843 12.1229 54.5987 11.6921 51.3656 11.1903C44.4194 10.1122 37.5851 8.55035 30.8863 6.40841C27.3143 5.26625 23.7971 3.97798 20.355 2.49012C19.9397 2.31043 19.5567 2.3322 19.1482 2.4037C17.1909 2.74566 15.2336 3.08887 13.2757 3.43146C13.2204 3.4414 13.1632 3.44203 13.0177 3.45446L13.0171 3.45322Z" fill="#E62224"/>
<path d="M54.2953 46.5296H53.0605C53.1501 46.348 53.3086 46.1721 53.3136 45.9911C53.3391 45.0653 53.3254 44.1389 53.3254 43.2125C53.2825 43.1994 53.2396 43.1864 53.1967 43.1733C52.6707 44.2726 52.1453 45.3712 51.5596 46.5961C50.9826 45.3625 50.4572 44.2403 49.9325 43.1174C49.8939 43.1292 49.8554 43.1404 49.8162 43.1522C49.8162 44.0966 49.8001 45.0417 49.8299 45.9849C49.8355 46.1714 50.0177 46.3524 50.1134 46.5258H49.0745C49.4736 46.3642 49.5507 46.1186 49.5495 45.8245C49.5451 44.8514 49.5644 43.8778 49.5358 42.9054C49.529 42.6722 49.3704 42.4434 49.279 42.2046H50.1936C50.6935 43.2728 51.1996 44.354 51.7567 45.5453C52.3169 44.3727 52.8311 43.2971 53.3552 42.2003H54.3252C53.9807 42.4061 53.9571 42.6871 53.9583 42.98C53.9614 43.8908 53.9565 44.8017 53.9608 45.7132C53.9621 46.0222 53.9378 46.3499 54.2966 46.5296H54.2953Z" fill="black"/>
<path d="M1.51221 46.5314C2.00712 46.3412 2.04318 46.0483 2.0407 45.7238C2.03324 44.7942 2.03697 43.8647 2.03883 42.9352C2.03883 42.6498 2.0208 42.3762 1.55884 42.1922C2.43489 42.1922 3.13436 42.1922 3.83446 42.1934C3.89601 42.1934 3.95881 42.2003 4.01912 42.2152C4.50222 42.3333 4.92315 42.5385 5.05185 43.0732C5.17434 43.58 4.96294 43.9567 4.496 44.2564C4.6303 44.3422 4.74346 44.4094 4.85165 44.484C5.49081 44.9242 5.49889 45.8313 4.8361 46.246C4.58491 46.4033 4.2616 46.5034 3.96502 46.5184C3.20586 46.5557 2.44422 46.5308 1.51283 46.5308L1.51221 46.5314ZM2.69354 46.2976C3.08711 46.2976 3.45457 46.3325 3.81207 46.2889C4.25538 46.2342 4.53642 45.9246 4.59486 45.526C4.65517 45.1126 4.43818 44.7234 4.0073 44.5399C3.58265 44.3596 3.14244 44.3379 2.69354 44.4672V46.2983V46.2976ZM2.69603 44.1625C3.0641 44.1625 3.35446 44.1899 3.63736 44.1563C4.1186 44.0991 4.36419 43.8367 4.4015 43.4046C4.43631 43.0042 4.21124 42.6131 3.82078 42.4739C3.45146 42.342 3.06721 42.2625 2.69603 42.4863V44.1632V44.1625Z" fill="black"/>
<path d="M82.1982 42.1947C82.8573 42.1947 83.5182 42.1655 84.1754 42.2028C84.8258 42.2395 85.2585 42.6131 85.3474 43.123C85.4332 43.6135 85.1771 44.0021 84.564 44.3155C84.4944 44.3509 84.4285 44.3957 84.2892 44.4784C84.9016 45.1729 85.2137 46.0614 86.0655 46.5457C85.9051 46.5457 85.7435 46.5308 85.5856 46.5488C85.2417 46.5886 85.0092 46.4686 84.8146 46.1689C84.4993 45.684 84.1325 45.2326 83.7974 44.7601C83.6507 44.5536 83.4871 44.4293 83.1483 44.5536C83.1483 45.0504 83.1253 45.5801 83.1632 46.1055C83.1738 46.2491 83.3653 46.3797 83.4784 46.5227H81.9788C82.4905 46.3623 82.511 46.0657 82.5097 45.7511C82.5054 44.8197 82.5073 43.8884 82.5091 42.957C82.5091 42.6654 82.5178 42.3738 82.1989 42.1941L82.1982 42.1947ZM83.1638 42.4925V44.1762C83.8639 44.2794 84.3047 44.1172 84.5292 43.6906C84.6958 43.3748 84.666 42.975 84.4247 42.7083C84.0772 42.3253 83.6569 42.2699 83.1638 42.4919V42.4925Z" fill="black"/>
<path d="M22.8483 42.2998V43.4108C22.7122 43.1354 22.6531 42.9905 22.5735 42.8581C22.3397 42.4714 21.9953 42.278 21.5389 42.306C21.2112 42.3259 21.0042 42.5192 20.891 42.8071C20.7853 43.0776 20.9165 43.3033 21.118 43.4643C21.3748 43.6701 21.6564 43.8454 21.9319 44.0282C22.2067 44.211 22.5126 44.3565 22.7594 44.571C23.4831 45.2002 23.2773 46.2156 22.3783 46.555C21.9903 46.7018 21.6123 46.6589 21.2224 46.5569C20.9594 46.4879 20.6834 46.4705 20.3843 46.4257V45.2189C20.4993 45.4514 20.5578 45.5577 20.6063 45.6678C20.8382 46.1981 21.2691 46.4674 21.828 46.4375C22.1687 46.4195 22.4373 46.279 22.5567 45.9563C22.6773 45.6305 22.5636 45.3376 22.3062 45.1213C22.1339 44.9764 21.9287 44.8701 21.7372 44.7476C21.4239 44.5468 21.0912 44.3714 20.8015 44.1414C20.3762 43.8038 20.2463 43.3188 20.4067 42.8674C20.5876 42.3588 21.039 42.0455 21.6073 42.0653C21.81 42.0722 22.0108 42.1393 22.2123 42.1779C22.4063 42.2152 22.6002 42.2513 22.8489 42.2979L22.8483 42.2998Z" fill="black"/>
<path d="M95.5859 46.5314H94.5917C94.5482 45.8736 93.9824 45.5845 93.6386 45.1231C93.5236 45.5907 93.3812 46.0502 93.7648 46.5103H92.8272C92.8794 46.2927 92.9802 46.0589 92.9851 45.8239C93.0038 44.8521 92.9938 43.8796 92.9926 42.9072C92.9926 42.6622 93.0231 42.4017 92.6438 42.2649C92.9435 42.1381 93.1648 42.0442 93.4745 41.913C93.5826 42.8873 93.4682 43.8106 93.5447 44.7321C94.1802 44.474 94.5488 44.0668 94.5824 43.593H95.3982C94.9468 43.9636 94.5047 44.3267 94.0117 44.7314C94.5576 45.3557 95.0661 45.9376 95.5853 46.5314H95.5859Z" fill="black"/>
<path d="M10.9956 43.6987C10.9496 43.1423 11.1834 42.6349 10.6866 42.232C10.9372 42.1325 11.1622 42.043 11.4507 41.9286C11.4737 42.1325 11.5054 42.2836 11.5061 42.4353C11.5104 43.4904 11.5073 44.5455 11.5092 45.6007C11.5092 45.8612 11.4632 46.1484 11.9338 46.2809C11.6055 46.4145 11.3686 46.5115 11.1063 46.6191C11.0391 46.4923 10.985 46.3909 10.9216 46.2715C10.5809 46.5321 10.2221 46.7186 9.78255 46.5501C9.25904 46.3493 9.01096 45.9314 8.94941 45.411C8.87417 44.7768 9.08557 44.2241 9.5724 43.8026C9.97592 43.4531 10.441 43.4674 10.9962 43.6993L10.9956 43.6987ZM11.0186 45.1819C11.0186 44.8943 11.0186 44.5555 10.9483 44.2819C10.8128 43.7522 10.2899 43.575 9.90131 43.8958C9.33427 44.364 9.41199 45.7113 10.0306 46.1037C10.2551 46.246 10.492 46.2672 10.7345 46.1459C10.9751 46.0253 11.0186 45.5963 11.0186 45.5682C11.0186 45.5402 11.0186 45.3255 11.0186 45.1819Z" fill="black"/>
<path d="M38.6383 46.5072C38.5145 45.8773 38.0016 45.5447 37.6099 45.1076C37.5521 45.5975 37.3699 46.0838 37.7896 46.524H36.8171C36.8824 46.2995 36.9981 46.08 37.0024 45.8581C37.0223 44.8639 37.0205 43.8691 37.0037 42.8743C37.0006 42.6697 36.9023 42.467 36.8283 42.1903C36.967 42.1344 37.1983 42.0405 37.5284 41.9074V44.7495C38.001 44.4386 38.5493 44.2633 38.609 43.6073H39.3682C38.941 43.9679 38.5108 44.331 38.0302 44.7364C38.5779 45.3619 39.0872 45.9445 39.5796 46.5072H38.6376H38.6383Z" fill="black"/>
<path d="M70.0175 44.1756C70.1064 43.6135 70.7412 43.3319 71.2106 43.6577C71.3406 43.7478 71.4357 43.8896 71.575 44.0382C71.695 43.9418 71.8131 43.8361 71.9418 43.7447C72.5984 43.279 73.2512 43.5681 73.3065 44.3658C73.3395 44.839 73.2966 45.3171 73.3264 45.7909C73.342 46.0365 73.4408 46.2771 73.5043 46.5271H72.5903C72.6643 46.3523 72.7892 46.1857 72.7986 46.0135C72.8253 45.4981 72.8216 44.9801 72.8004 44.4641C72.7855 44.096 72.6257 43.9337 72.3385 43.9132C72.0525 43.8927 71.6552 44.1184 71.5737 44.3472C71.4587 44.6705 71.5868 46.2212 71.764 46.5252H70.8257C70.8954 46.3505 71.0135 46.1801 71.0228 46.0048C71.049 45.5105 71.0583 45.0106 71.0148 44.5188C70.9974 44.3211 70.8686 44.0587 70.7095 43.9654C70.4745 43.8286 70.1885 43.8858 70.0187 44.1656L70.0168 44.175L70.0175 44.1756Z" fill="black"/>
<path d="M17.9842 46.5258H17.0995C17.1747 46.3486 17.2972 46.1863 17.3053 46.0179C17.3289 45.5024 17.332 44.9833 17.2972 44.4691C17.2692 44.0537 17.0957 43.9058 16.7743 43.9126C16.4137 43.9201 16.03 44.1942 16.0151 44.5101C15.9903 45.0255 15.9934 45.5441 16.017 46.0595C16.0238 46.2056 16.1407 46.3461 16.2172 46.5109H15.3194C15.6489 45.7493 15.4556 44.9478 15.463 44.1625C15.4643 44.0637 15.297 43.963 15.1702 43.8212C15.3903 43.7292 15.6396 43.6253 15.9324 43.5035C15.9741 43.6844 16.0046 43.8181 16.0388 43.9654C16.0947 43.9542 16.1662 43.9611 16.2041 43.9288C16.548 43.6334 16.9248 43.381 17.3811 43.611C17.8387 43.8411 17.8325 44.3105 17.8331 44.7513C17.8331 45.1238 17.817 45.4968 17.84 45.8674C17.853 46.0819 17.9308 46.292 17.9842 46.5264V46.5258Z" fill="black"/>
<path d="M57.7764 43.861C58.1339 43.7205 58.3919 43.6198 58.6792 43.5066C58.7295 43.7105 58.7631 43.8442 58.8047 44.0121C58.9216 43.9257 59.0199 43.8548 59.1162 43.7827C59.4134 43.5588 59.743 43.4338 60.098 43.5986C60.4648 43.7683 60.5376 44.124 60.5469 44.4871C60.5575 44.8999 60.5314 45.3147 60.5587 45.7256C60.5767 45.9936 60.6619 46.2572 60.7179 46.5289H59.8872C59.9363 46.2728 60.0122 46.0309 60.0234 45.7853C60.0439 45.3526 60.0408 44.9173 60.019 44.4846C59.9991 44.0954 59.8624 43.9418 59.5801 43.9132C59.2723 43.8815 58.7936 44.1153 58.7824 44.3777C58.755 45.0125 58.7904 45.6504 58.8141 46.2865C58.8166 46.3524 58.9092 46.4152 58.9875 46.5153H58.0456C58.1065 46.2995 58.2116 46.0775 58.2253 45.85C58.2539 45.3768 58.2302 44.9006 58.2352 44.4255C58.2377 44.1632 58.1706 43.9518 57.7764 43.8616V43.861Z" fill="black"/>
<path d="M13.8186 46.2317C13.6843 46.3163 13.5518 46.4114 13.4088 46.486C12.9898 46.7043 12.5776 46.6234 12.368 46.2908C12.1392 45.9271 12.2393 45.4999 12.6428 45.2189C12.8275 45.0902 13.037 44.9957 13.2416 44.8987C13.4443 44.8029 13.6551 44.7233 13.9168 44.6145C13.8888 44.41 13.8969 44.2005 13.8273 44.0214C13.7365 43.787 13.5164 43.6943 13.269 43.7316C13.0482 43.7652 12.8828 43.8759 12.8741 44.1314C12.871 44.2135 12.8884 44.3198 12.8443 44.3714C12.7747 44.4535 12.6484 44.5604 12.5701 44.5437C12.488 44.5256 12.3612 44.3478 12.3836 44.2869C12.4569 44.0867 12.5452 43.8448 12.7069 43.7329C13.1259 43.4419 13.6028 43.4612 14.0648 43.6546C14.38 43.7864 14.4372 44.0792 14.4447 44.3758C14.4565 44.8502 14.4428 45.3252 14.4534 45.8002C14.4602 46.1036 14.4708 46.1036 14.7991 46.251C14.3844 46.7347 14.2569 46.7341 13.8173 46.233L13.8186 46.2317ZM13.9168 44.7967C13.5102 45.0112 13.2248 45.1225 12.9873 45.2978C12.7311 45.4869 12.7063 45.7735 12.8636 46.0029C13.0321 46.2485 13.264 46.2591 13.5145 46.1664C13.7601 46.0757 13.9392 45.9333 13.9193 45.6305C13.905 45.411 13.9162 45.1897 13.9162 44.7973L13.9168 44.7967Z" fill="black"/>
<path d="M33.7998 43.8653C33.7998 44.5586 33.7799 45.2587 33.8128 45.9557C33.8221 46.1497 33.9869 46.3362 34.0789 46.5227H32.8777C33.2881 46.2858 33.2893 45.9644 33.2831 45.6305C33.2725 45.0535 33.28 44.4759 33.28 43.8622C33.0935 43.8206 32.9281 43.7839 32.7627 43.7472C32.7583 43.7161 32.7546 43.6856 32.7502 43.6546C32.9088 43.6104 33.0673 43.5663 33.2253 43.5221C33.4634 42.079 34.0733 41.6538 35.1912 42.1723C35.3032 42.1083 35.4169 42.0113 35.5481 41.9752C35.7738 41.913 35.9342 42.0654 35.9405 42.2562C35.9442 42.3725 35.7745 42.5951 35.6787 42.597C35.3137 42.6057 34.9208 42.8426 34.6018 42.3632C34.3519 41.9883 33.9627 42.1232 33.8483 42.564C33.8221 42.6635 33.8023 42.7667 33.7985 42.8687C33.7911 43.072 33.796 43.2765 33.796 43.5215C34.0416 43.5576 34.2568 43.5893 34.4719 43.621C34.4787 43.6539 34.4856 43.6869 34.4924 43.7198C34.2785 43.764 34.0646 43.8088 33.7991 43.8635L33.7998 43.8653Z" fill="black"/>
<path d="M57.6372 46.1764C57.113 46.7366 56.9837 46.7378 56.5478 46.2299C56.3918 46.3275 56.2419 46.4406 56.0759 46.5202C55.6898 46.7049 55.2795 46.5973 55.0917 46.2802C54.9027 45.9606 54.9667 45.5136 55.2938 45.286C55.5779 45.0877 55.9081 44.954 56.2202 44.798C56.347 44.7345 56.4807 44.6854 56.6567 44.6114C56.6336 44.4212 56.6405 44.2334 56.5833 44.068C56.5012 43.8318 56.3004 43.7099 56.0492 43.7254C55.7968 43.7416 55.6196 43.8604 55.6115 44.147C55.609 44.2284 55.6171 44.3366 55.5711 44.3851C55.4971 44.4628 55.364 44.5617 55.2882 44.5399C55.2036 44.5157 55.1085 44.3708 55.0992 44.2707C55.0737 44.0046 55.323 43.6838 55.66 43.6117C55.9553 43.5489 56.2768 43.537 56.5758 43.5793C56.9657 43.634 57.1373 43.856 57.1547 44.2651C57.1752 44.76 57.169 45.2568 57.1621 45.7524C57.1578 46.052 57.2069 46.2833 57.6365 46.1764H57.6372ZM56.6498 44.8521C56.3259 44.9882 56.0716 45.0628 55.8527 45.1946C55.5021 45.406 55.4125 45.7592 55.6028 46.0265C55.7818 46.2777 56.1872 46.292 56.4795 46.0359C56.5621 45.9638 56.6324 45.8382 56.6417 45.7306C56.6654 45.4713 56.6492 45.2089 56.6492 44.8521H56.6498Z" fill="black"/>
<path d="M41.7408 44.5772C41.7091 44.3963 41.7048 44.2079 41.6407 44.0432C41.5493 43.8069 41.3411 43.7018 41.0911 43.7273C40.8673 43.7503 40.7 43.8597 40.682 44.1134C40.6776 44.1756 40.6957 44.2564 40.6633 44.2956C40.5825 44.3938 40.4774 44.5455 40.3842 44.5443C40.1778 44.5418 40.1156 44.3565 40.179 44.183C40.2331 44.0338 40.322 43.8803 40.4376 43.7739C40.7578 43.4798 41.5282 43.4432 41.9075 43.6707C42.1736 43.8305 42.2351 44.0767 42.2345 44.3596C42.2333 44.8564 42.2258 45.3532 42.2407 45.8493C42.2494 46.1465 42.2662 46.1465 42.6623 46.1901C42.2277 46.7391 42.0486 46.7478 41.647 46.2193C41.5108 46.3032 41.3765 46.3952 41.2341 46.4723C40.8132 46.6993 40.3991 46.6328 40.1833 46.3094C39.9371 45.9407 40.0459 45.457 40.4843 45.194C40.8536 44.9721 41.2596 44.8104 41.7415 44.5766L41.7408 44.5772ZM41.7265 44.7986C41.3205 45.015 41.0196 45.1374 40.7641 45.3227C40.5396 45.485 40.5197 45.7555 40.6553 45.9923C40.8014 46.2479 41.0457 46.2634 41.3031 46.1714C41.5773 46.0732 41.7657 45.9196 41.7303 45.5851C41.7091 45.3837 41.7265 45.1785 41.7265 44.7992V44.7986Z" fill="black"/>
<path d="M63.8129 46.2902C63.3441 46.7235 63.2447 46.7192 62.843 46.2317C62.6726 46.3318 62.5054 46.4506 62.322 46.5333C61.9564 46.698 61.5802 46.5979 61.3856 46.3057C61.1711 45.9837 61.2053 45.5472 61.5467 45.314C61.9508 45.0373 62.4078 44.8378 62.9164 44.5648C62.907 44.4535 62.9164 44.2707 62.8704 44.1016C62.7958 43.8237 62.5744 43.7037 62.3033 43.7286C62.0565 43.7509 61.8787 43.8834 61.8774 44.1669C61.8774 44.2284 61.8942 44.3111 61.8619 44.3478C61.7885 44.4311 61.6897 44.4914 61.6014 44.5611C61.5261 44.4566 61.3695 44.3285 61.3918 44.2527C61.4453 44.068 61.5491 43.8697 61.6921 43.746C62.008 43.4724 62.7441 43.4581 63.1066 43.6658C63.3746 43.8193 63.4492 44.0693 63.4554 44.3466C63.466 44.8005 63.4554 45.255 63.4617 45.7088C63.4672 46.0949 63.4716 46.0949 63.8111 46.2908L63.8129 46.2902ZM62.9313 44.7843C62.5091 45.0137 62.2163 45.1256 61.9837 45.3122C61.6828 45.5534 61.7214 45.9662 62.0167 46.1515C62.3301 46.348 62.8853 46.0987 62.9263 45.7269C62.9543 45.4707 62.9319 45.2089 62.9319 44.7843H62.9313Z" fill="black"/>
<path d="M7.64451 44.5822C7.64451 44.4479 7.66689 44.3012 7.63954 44.1638C7.5842 43.8858 7.39083 43.7285 7.11291 43.7267C6.83188 43.7248 6.63665 43.8541 6.63665 44.1737C6.63665 44.2353 6.64597 44.3173 6.6124 44.354C6.5353 44.4361 6.43458 44.4945 6.34318 44.5629C6.2723 44.4547 6.12184 44.3229 6.14608 44.2427C6.2008 44.0581 6.30152 43.8436 6.45199 43.7391C6.87416 43.4456 7.3498 43.4643 7.81487 43.6502C8.10585 43.7665 8.18171 44.0282 8.18606 44.3111C8.19352 44.8079 8.18295 45.3053 8.19601 45.8021C8.20409 46.1074 8.21777 46.1067 8.57901 46.2156C8.1817 46.7391 8.01197 46.7447 7.60099 46.2224C7.4356 46.3225 7.27208 46.4406 7.09239 46.5246C6.70753 46.7055 6.29282 46.5917 6.10878 46.2728C5.9235 45.9513 5.99127 45.4993 6.32826 45.2811C6.72431 45.0243 7.16265 44.834 7.64389 44.5828L7.64451 44.5822ZM7.67 44.8048C7.27457 45.0131 6.96183 45.1213 6.72245 45.3184C6.39043 45.5919 6.50484 46.0918 6.88597 46.2013C7.23477 46.3014 7.64575 46.0203 7.66752 45.6554C7.68119 45.4191 7.67 45.1816 7.67 44.8054V44.8048Z" fill="black"/>
<path d="M96.0486 45.1331C96.0349 44.2042 96.6436 43.5265 97.4892 43.5296C98.2539 43.5321 98.8701 44.1613 98.8999 44.9689C98.9316 45.8431 98.2825 46.5923 97.4705 46.6191C96.6939 46.6446 96.061 45.9836 96.0486 45.1331ZM98.3086 45.4365C98.308 44.8259 98.2378 44.3789 97.9337 44.0121C97.5737 43.5775 97.0222 43.6371 96.7661 44.1246C96.4875 44.6537 96.6399 45.7461 97.0502 46.1683C97.4388 46.5675 97.9822 46.473 98.1936 45.9513C98.2763 45.7468 98.2919 45.5148 98.3086 45.4365Z" fill="black"/>
<path d="M26.3449 44.7078H24.3684C24.3621 45.2997 24.5281 45.7387 25.0262 45.9924C25.4328 46.1994 25.7692 46.1005 26.2591 45.7001C26.154 46.1267 25.914 46.4388 25.4639 46.565C25.0013 46.6949 24.6021 46.5644 24.2751 46.2317C23.7056 45.6535 23.7217 44.4778 24.2975 43.9076C24.6898 43.5184 25.1698 43.4289 25.6709 43.6042C26.1198 43.7609 26.3474 44.1165 26.3455 44.7084L26.3449 44.7078ZM24.41 44.4516H25.6597C25.5988 43.9723 25.4322 43.7559 25.1238 43.7211C24.7868 43.6838 24.5362 43.9244 24.41 44.4516Z" fill="black"/>
<path d="M76.5937 44.6923H74.6937C74.639 45.3719 74.8709 45.8288 75.3297 46.0166C75.7538 46.1901 76.0914 46.0788 76.6087 45.5298C76.4315 46.1273 76.1703 46.4773 75.6537 46.5818C75.1606 46.6819 74.7552 46.5128 74.4481 46.1223C74.0402 45.6038 74.0309 44.609 74.4182 44.0718C74.7409 43.6247 75.3198 43.4227 75.8514 43.5706C76.3214 43.7012 76.5533 44.0363 76.5931 44.6923H76.5937ZM75.8999 44.4479C75.8725 43.9797 75.7121 43.7603 75.3894 43.7236C75.0356 43.6838 74.7826 43.9331 74.6918 44.4479H75.8999Z" fill="black"/>
<path d="M66.5413 44.6923C66.5413 45.3178 66.7073 45.7654 67.219 45.9998C67.6791 46.2106 68.0832 46.0663 68.4246 45.6883C68.2921 46.251 67.9458 46.5544 67.4005 46.611C66.915 46.6614 66.425 46.3623 66.2074 45.878C65.9556 45.3171 65.973 44.7439 66.2503 44.1986C66.5108 43.6863 67.0959 43.4388 67.6747 43.5538C68.1889 43.6558 68.4339 43.9692 68.5122 44.6923H66.5413ZM67.8134 44.4492C67.7773 43.9598 67.5784 43.7186 67.2339 43.7205C66.9 43.7223 66.6843 43.9598 66.6047 44.4492H67.8134Z" fill="black"/>
<path d="M88.4178 45.623C88.5546 45.8239 88.6105 45.96 88.7107 46.0402C88.8829 46.1789 89.0694 46.3262 89.2746 46.3909C89.5258 46.4699 89.7757 46.3946 89.8895 46.1155C89.9933 45.8593 89.8646 45.669 89.6588 45.5385C89.4325 45.3955 89.1869 45.2829 88.9538 45.1505C88.4532 44.8664 88.2916 44.5207 88.452 44.0923C88.6124 43.6633 88.9724 43.4792 89.509 43.5557C89.7086 43.5843 89.9069 43.621 90.1382 43.6589V44.4529C89.9834 44.216 89.9274 44.0357 89.808 43.9685C89.6066 43.8554 89.356 43.736 89.1409 43.759C88.7685 43.7994 88.6702 44.1849 88.9419 44.4479C89.0576 44.5598 89.2143 44.632 89.3585 44.7103C89.522 44.7986 89.698 44.8639 89.859 44.9565C90.3229 45.2239 90.4932 45.5683 90.3732 45.9681C90.2526 46.3698 89.8379 46.6446 89.3517 46.6122C89.0464 46.5917 88.7436 46.5277 88.4178 46.4798V45.623Z" fill="black"/>
<path d="M44.821 43.6527V44.3746C44.7973 44.3814 44.7743 44.3889 44.7507 44.3957C44.6873 44.2738 44.6531 44.1147 44.5542 44.0382C44.3839 43.9051 44.1774 43.7516 43.9797 43.7422C43.8193 43.7348 43.5862 43.8933 43.5072 44.0425C43.4562 44.1395 43.5868 44.3907 43.703 44.5039C43.8454 44.6419 44.0587 44.7066 44.2402 44.8048C44.4038 44.8931 44.5772 44.9671 44.7271 45.0753C45.0535 45.3109 45.1679 45.6597 45.0547 45.9992C44.931 46.3691 44.5312 46.6346 44.0699 46.6116C43.7646 46.5961 43.4624 46.5289 43.1236 46.4798V45.697C43.2231 45.827 43.2852 45.9358 43.3735 46.016C43.5091 46.1391 43.6483 46.2715 43.8106 46.3468C44.1296 46.4954 44.4516 46.3953 44.5654 46.1484C44.6724 45.9159 44.5754 45.6753 44.267 45.4844C44.0214 45.3327 43.7503 45.2214 43.5066 45.0666C43.1292 44.8278 43.0054 44.4921 43.1261 44.1147C43.2417 43.7534 43.5731 43.5172 43.9872 43.5383C44.2508 43.552 44.5126 43.6098 44.8203 43.6546L44.821 43.6527Z" fill="black"/>
<path d="M64.2079 43.8504C64.5759 43.7112 64.8147 43.6204 65.0988 43.5128C65.1243 43.7279 65.1542 43.866 65.1554 44.0046C65.1598 44.8303 65.1759 45.6572 65.1486 46.4823C65.138 46.8031 65.0771 47.1463 64.9421 47.4342C64.7183 47.9123 64.0742 48.1399 63.6868 47.9105C63.5768 47.8452 63.4586 47.6456 63.481 47.5349C63.5221 47.3267 63.7198 47.3503 63.8845 47.4255C64.0729 47.5119 64.2402 47.839 64.4547 47.6021C64.5946 47.4473 64.6213 47.1532 64.6269 46.9194C64.6462 46.1142 64.6356 45.3091 64.6331 44.5033C64.6325 44.2477 64.6704 43.971 64.2079 43.8498V43.8504Z" fill="black"/>
<path d="M28.8494 43.9101C28.8935 43.8106 28.9153 43.6912 28.9855 43.616C29.2317 43.3505 29.4941 43.0999 29.7783 42.8152C29.8 43.0384 29.8205 43.2529 29.8454 43.5103C30.0406 43.5513 30.2477 43.5949 30.4541 43.6378L30.4678 43.7211C30.2682 43.7652 30.0686 43.8094 29.8181 43.8647C29.8181 44.4977 29.8006 45.1356 29.8243 45.7722C29.8392 46.1776 29.9486 46.2267 30.4883 46.182C30.1781 46.5905 30.0071 46.6732 29.7018 46.5681C29.3654 46.4518 29.3082 46.1733 29.3045 45.8717C29.2983 45.3973 29.302 44.9223 29.302 44.4473C29.302 44.2452 29.302 44.0431 29.302 43.7596C29.0962 43.8249 28.9731 43.8635 28.8494 43.9026V43.9089V43.9101Z" fill="black"/>
<path d="M28.85 43.9039C28.7499 43.9971 28.6492 44.0904 28.5255 44.2054C28.3638 44.137 28.1978 44.0674 28.0405 44.0015C27.461 44.1035 27.356 45.7629 27.882 46.5296H26.8853C26.9475 46.3244 27.0494 46.1304 27.0588 45.932C27.083 45.416 27.0619 44.8974 27.0687 44.3808C27.0718 44.1327 27.037 43.9238 26.7168 43.8349C26.9568 43.7329 27.1968 43.6309 27.4816 43.5103C27.5431 43.6819 27.5922 43.8199 27.6426 43.9617C28.3489 43.3959 28.375 43.3947 28.8494 43.9101L28.85 43.9045V43.9039Z" fill="black"/>
<path d="M78.0306 44.055C77.7608 44.8744 77.7863 45.6858 78.0188 46.5184H77.1378C77.5065 45.776 77.2814 44.9919 77.31 44.2309C77.3144 44.1097 77.1595 43.9816 77.0464 43.8081C77.2491 43.7223 77.4841 43.6235 77.7204 43.524C77.8441 43.7329 77.9429 43.9001 78.0418 44.0674L78.03 44.0556L78.0306 44.055Z" fill="black"/>
<path d="M78.0426 44.0668C78.1296 43.7385 78.4113 43.6372 78.6842 43.5638C79.204 43.4233 79.6001 43.7236 79.6486 44.3149C79.6871 44.7874 79.6436 45.2655 79.6734 45.7393C79.6902 46.0036 79.7816 46.2635 79.8407 46.5289H79.0467C79.0846 46.2063 79.1375 45.8979 79.153 45.5876C79.1704 45.2376 79.1723 44.8844 79.1499 44.5344C79.1139 43.9717 78.8751 43.82 78.3236 43.9785C78.2266 44.0065 78.1284 44.0295 78.0308 44.055L78.0426 44.0668Z" fill="black"/>
<path d="M87.7163 46.5296H86.6823C87.0772 46.0869 86.9379 45.5721 86.9211 45.0977C86.9068 44.6743 87.1654 44.1507 86.5381 43.8293C86.8527 43.7167 87.1113 43.6241 87.4191 43.5147C87.4577 44.4977 87.4894 45.3967 87.5341 46.2958C87.5372 46.3623 87.6305 46.4239 87.7163 46.5302V46.5296Z" fill="black"/>
<path d="M46.7477 46.5283H45.8331C46.2559 45.8127 46.0022 45.0392 46.0395 44.2999C46.047 44.1488 45.8673 43.9884 45.7542 43.7982C45.96 43.7223 46.2192 43.6266 46.5065 43.5209C46.7185 44.5468 46.3585 45.5546 46.7477 46.5283Z" fill="black"/>
<path d="M70.0188 44.1663C69.938 44.2421 69.79 44.3155 69.7875 44.3932C69.7683 44.9702 69.767 45.5478 69.7882 46.1248C69.7925 46.2504 69.9107 46.3722 69.9877 46.5177H69.0526C69.4045 45.7723 69.1907 44.9895 69.2161 44.2284C69.2205 44.1072 69.0657 43.9804 68.9519 43.8075C69.1596 43.7217 69.3971 43.6229 69.6209 43.5302C69.7676 43.769 69.892 43.9704 70.017 44.1743C70.017 44.1762 70.0188 44.1669 70.0188 44.1669V44.1663Z" fill="black"/>
<path d="M34.9761 43.8249C35.3106 43.7049 35.5549 43.6173 35.8142 43.5246C36.0654 44.5505 35.6302 45.5814 36.0996 46.5289H35.2161C35.272 46.3008 35.3616 46.0813 35.3728 45.8587C35.3964 45.3855 35.3864 44.9105 35.3777 44.4361C35.3715 44.0966 35.3628 44.0966 34.9761 43.8249Z" fill="black"/>
<path d="M32.0166 46.5271H31.13C31.184 46.307 31.2723 46.0912 31.2829 45.8717C31.3059 45.3781 31.2966 44.8825 31.2873 44.3882C31.2817 44.0879 31.2705 44.0879 30.8931 43.8492C31.1859 43.7323 31.4415 43.6309 31.7287 43.5165C31.9749 44.5437 31.549 45.5777 32.0166 46.5264V46.5271Z" fill="black"/>
<path d="M91.0503 43.7982C91.3027 43.7037 91.5272 43.6191 91.8032 43.5159C92.0184 44.5368 91.6677 45.5627 92.042 46.5202H91.1715C91.5222 45.7692 91.312 44.9845 91.3357 44.221C91.3394 44.1016 91.1759 43.9766 91.0503 43.7982Z" fill="black"/>
<path d="M92.0861 42.2867C91.8685 42.4477 91.7584 42.5883 91.6279 42.6113C91.4183 42.6486 91.2505 42.4969 91.2809 42.2904C91.299 42.1692 91.4737 41.9845 91.5788 41.9839C91.7155 41.9839 91.8523 42.1375 92.0861 42.2867Z" fill="black"/>
<path d="M31.5267 41.7965C31.6933 42.0471 31.8493 42.1814 31.8518 42.3176C31.8537 42.4177 31.6541 42.5992 31.5422 42.6004C31.429 42.6023 31.2232 42.4288 31.2208 42.3287C31.2176 42.1926 31.3687 42.0521 31.526 41.7959L31.5267 41.7965Z" fill="black"/>
<path d="M46.3187 41.7899C46.4648 42.0585 46.6066 42.204 46.596 42.3377C46.5886 42.4403 46.3846 42.6063 46.2758 42.6007C46.1664 42.5951 45.9792 42.4092 45.983 42.3072C45.9873 42.1723 46.1434 42.043 46.3187 41.7893V41.7899Z" fill="black"/>
<path d="M64.847 42.7636C64.6797 42.546 64.5174 42.4247 64.5069 42.2917C64.4988 42.1903 64.6667 42.01 64.786 41.9789C64.9943 41.9249 65.146 42.0815 65.1255 42.2904C65.1125 42.4191 64.9856 42.5367 64.8463 42.763L64.847 42.7636Z" fill="black"/>
<path d="M87.6499 42.2612C87.4391 42.4347 87.3397 42.5783 87.2141 42.6069C87.0114 42.6529 86.8335 42.528 86.8659 42.3085C86.8839 42.1841 87.0344 41.9933 87.1339 41.987C87.2669 41.9796 87.408 42.1232 87.6499 42.2612Z" fill="black"/>
</g>
<defs>
<clipPath id="clip0_226_3649">
<rect width="99.5347" height="48" fill="white"/>
</clipPath>
</defs>
</svg>
