<svg width="202" height="40" viewBox="0 0 202 40" fill="none" xmlns="http://www.w3.org/2000/svg">
<path d="M0.00998874 9.27185C0.0951889 11.7909 1.10708 14.19 2.85172 16.0091L3.22629 16.3837L5.64351 18.8059H14.1337C13.7996 18.2665 13.6279 17.6423 13.6393 17.0079V16.8082C13.6363 16.1703 13.8062 15.5435 14.1308 14.9944C14.4555 14.4454 14.9228 13.9945 15.4832 13.6897C16.0436 13.3849 16.676 13.2377 17.3134 13.2635C17.9507 13.2894 18.5692 13.4874 19.103 13.8366L19.2179 13.9165V6.09051L16.1764 3.054C15.2133 2.08815 14.0679 1.32324 12.8068 0.803691C11.5456 0.284141 10.1938 0.0202991 8.82984 0.0274867C6.49228 0.0301146 4.25093 0.958505 2.59616 2.60953C0.941384 4.26056 0.00792244 6.49981 0 8.83735C0 8.96221 0 9.08706 0 9.20692C0.00582367 9.22811 0.00917571 9.2499 0.00998874 9.27185Z" fill="url(#paint0_linear_5590_63539)"/>
<path d="M16.1715 24.2746C16.0178 24.274 15.8678 24.228 15.7403 24.1424C15.6127 24.0567 15.5133 23.9353 15.4546 23.7933C15.3959 23.6513 15.3805 23.4951 15.4103 23.3444C15.4401 23.1937 15.5138 23.0551 15.6221 22.9462L18.2042 20.3691H7.2168L19.203 32.3554V21.5528L16.7059 24.0499C16.5624 24.1895 16.3716 24.2698 16.1715 24.2746Z" fill="url(#paint1_linear_5590_63539)"/>
<path d="M22.1295 18.7682H22.8637C23.1196 18.7688 23.3732 18.7189 23.6098 18.6212C23.8464 18.5236 24.0614 18.3801 24.2424 18.1991C24.4234 18.0181 24.5669 17.8032 24.6645 17.5665C24.7622 17.3299 24.8121 17.0764 24.8114 16.8204C24.8071 16.4476 24.6986 16.0835 24.4981 15.7692C24.2977 15.4549 24.0133 15.2029 23.6771 15.0418C23.3409 14.8807 22.9663 14.8169 22.5957 14.8577C22.2251 14.8984 21.8734 15.0419 21.5801 15.2722C21.5202 15.3271 21.4553 15.387 21.4004 15.447C21.0092 15.8713 20.7932 16.4281 20.796 17.0052V17.4197C20.7934 17.5963 20.826 17.7716 20.8918 17.9354C20.9577 18.0992 21.0556 18.2482 21.1798 18.3738C21.3039 18.4994 21.4519 18.5989 21.6149 18.6666C21.778 18.7343 21.9529 18.7688 22.1295 18.7682Z" fill="url(#paint2_linear_5590_63539)"/>
<path d="M18.484 15.3228C18.1948 15.0787 17.8423 14.9218 17.4675 14.8702C17.0926 14.8186 16.7108 14.8746 16.3665 15.0316C16.0222 15.1885 15.7296 15.4401 15.5227 15.7569C15.3158 16.0737 15.2031 16.4427 15.1978 16.8211C15.1978 17.335 15.4019 17.8279 15.7653 18.1913C16.1287 18.5547 16.6216 18.7589 17.1355 18.7589H17.8847C18.2383 18.7589 18.5775 18.6184 18.8276 18.3683C19.0776 18.1182 19.2181 17.7791 19.2181 17.4254V16.9609C19.2182 16.6697 19.1609 16.3813 19.0495 16.1123C18.9381 15.8432 18.7748 15.5987 18.5689 15.3927L18.484 15.3228Z" fill="url(#paint3_linear_5590_63539)"/>
<path d="M1.62813 16.9605C0.996979 16.2924 0.450187 15.5493 0 14.748V31.1692C0.00792244 33.5067 0.941384 35.7459 2.59616 37.397C4.25093 39.048 6.49229 39.9764 8.82984 39.979C10.2423 39.9843 11.6408 39.6988 12.9382 39.1403C14.2356 38.5819 15.4042 37.7623 16.3712 36.7327L18.8683 34.2356L1.62813 16.9605Z" fill="url(#paint4_linear_5590_63539)"/>
<path d="M21.8297 20.3694L24.4117 22.9464C24.4843 23.0188 24.542 23.1048 24.5813 23.1995C24.6206 23.2942 24.6408 23.3957 24.6408 23.4983C24.6408 23.6008 24.6206 23.7023 24.5813 23.797C24.542 23.8917 24.4843 23.9777 24.4117 24.0501C24.2633 24.1944 24.0644 24.2751 23.8573 24.2749C23.6518 24.2748 23.4546 24.1941 23.308 24.0501L20.7759 21.5031V32.3456L32.7621 20.3594L21.8297 20.3694Z" fill="url(#paint5_linear_5590_63539)"/>
<path d="M33.1521 0.19155C31.4813 -0.133912 29.7561 -0.0435895 28.1283 0.454566C26.5006 0.952722 25.0204 1.84343 23.8179 3.04826L20.7764 6.08976V13.9307L20.9112 13.8359C21.445 13.488 22.0629 13.2911 22.6995 13.2659C23.3361 13.2407 23.9677 13.3883 24.5272 13.6929C25.0868 13.9975 25.5535 14.4478 25.8779 14.9961C26.2023 15.5445 26.3723 16.1703 26.3699 16.8074V17.0072C26.3704 17.6542 26.1831 18.2875 25.8305 18.8301H34.3208L36.9528 16.1981C38.1565 14.9949 39.0465 13.5146 39.5445 11.8871C40.0426 10.2596 40.1336 8.53472 39.8095 6.86387C39.2401 3.75245 36.2486 0.760895 33.1521 0.19155Z" fill="url(#paint6_linear_5590_63539)"/>
<path d="M21.0957 34.2356L23.8176 36.9525C25.0206 38.1566 26.5009 39.0468 28.1284 39.5449C29.756 40.043 31.481 40.1337 33.1518 39.8092C36.2233 39.2448 39.2398 36.2233 39.8092 33.1518C40.134 31.4806 40.0429 29.7551 39.5439 28.1274C39.0448 26.4996 38.1532 25.0196 36.9475 23.8176L34.2306 21.0957L21.0957 34.2356Z" fill="url(#paint7_linear_5590_63539)"/>
<path d="M20.0174 20.4353C20.4974 20.4353 20.8864 20.0462 20.8864 19.5663C20.8864 19.0863 20.4974 18.6973 20.0174 18.6973C19.5375 18.6973 19.1484 19.0863 19.1484 19.5663C19.1484 20.0462 19.5375 20.4353 20.0174 20.4353Z" fill="url(#paint8_linear_5590_63539)"/>
<path d="M62.2184 30.5572L54.4873 21.0681V30.5572H50.2222V9.30664H54.4972V18.8357L62.2284 9.30664H67.3774L58.5975 19.8395L67.5872 30.5572H62.2184Z" fill="#1E1E1E"/>
<path d="M83.7088 23.4048H71.378C71.4159 24.4887 71.8745 25.5152 72.6565 26.2665C73.4111 26.9581 74.4052 27.3288 75.4283 27.3004C76.1308 27.3399 76.8288 27.1665 77.4311 26.803C78.0335 26.4394 78.5121 25.9026 78.8045 25.2627H83.4042C82.9284 26.8632 81.945 28.2655 80.6024 29.2581C79.1306 30.3345 77.3406 30.8866 75.5182 30.8263C73.9928 30.8509 72.487 30.4792 71.1483 29.7475C69.8779 29.0336 68.8382 27.9714 68.1517 26.6861C67.4115 25.2803 67.0403 23.7097 67.073 22.1213C67.0289 20.5199 67.3878 18.9332 68.1168 17.5066C68.7987 16.2217 69.8399 15.1632 71.1133 14.4601C72.4618 13.7662 73.9556 13.4017 75.4722 13.3965C76.9888 13.3913 78.485 13.7455 79.8383 14.4302C81.0865 15.1016 82.1121 16.122 82.7899 17.3668C83.5067 18.7101 83.8678 20.2145 83.8387 21.7368C83.8407 22.2954 83.7973 22.8533 83.7088 23.4048ZM79.4138 20.5431C79.4234 20.043 79.3217 19.547 79.1161 19.0909C78.9106 18.6349 78.6062 18.2302 78.2251 17.9062C77.4365 17.2357 76.4281 16.88 75.3934 16.9073C74.4168 16.8791 73.4657 17.2217 72.7314 17.8662C71.9802 18.5643 71.5096 19.5126 71.408 20.5331L79.4138 20.5431Z" fill="#1E1E1E"/>
<path d="M100.649 15.3476C101.888 16.6161 102.507 18.3874 102.507 20.6614V30.5551H98.2468V21.2408C98.3236 20.1202 97.9659 19.0132 97.248 18.1493C96.8954 17.784 96.4688 17.4983 95.9968 17.3114C95.5248 17.1245 95.0182 17.0407 94.5111 17.0656C93.9964 17.0393 93.482 17.1223 93.0017 17.3091C92.5214 17.4959 92.086 17.7822 91.7243 18.1493C90.9919 19.0063 90.6244 20.1161 90.7005 21.2408V30.5551H86.4404V13.6895H90.7005V15.787C91.2802 15.0501 92.0264 14.4613 92.878 14.069C93.7902 13.6473 94.7848 13.4341 95.7897 13.4447C96.6872 13.4085 97.5825 13.5589 98.419 13.8864C99.2554 14.2139 100.015 14.7115 100.649 15.3476Z" fill="#1E1E1E"/>
<path d="M105.983 17.5065C106.605 16.252 107.565 15.1966 108.755 14.46C109.936 13.7474 111.292 13.3789 112.671 13.3962C113.817 13.3709 114.952 13.6318 115.972 14.1553C116.861 14.6172 117.636 15.2725 118.239 16.0731V13.6909H122.534V30.5565H118.239V28.0943C117.651 28.9203 116.874 29.5933 115.972 30.057C114.943 30.588 113.798 30.8541 112.641 30.8312C111.268 30.845 109.919 30.4654 108.755 29.7374C107.565 28.9805 106.606 27.9111 105.983 26.646C105.289 25.2194 104.947 23.6473 104.985 22.0612C104.945 20.4846 105.288 18.9218 105.983 17.5065ZM117.63 19.4393C117.253 18.7286 116.684 18.1384 115.987 17.7362C115.313 17.3423 114.545 17.137 113.764 17.1419C112.995 17.1346 112.237 17.3347 111.572 17.7212C110.878 18.128 110.311 18.7193 109.934 19.4293C109.502 20.2379 109.287 21.1447 109.31 22.0612C109.289 22.9887 109.504 23.9062 109.934 24.7282C110.313 25.4489 110.881 26.0531 111.577 26.4762C112.232 26.8769 112.986 27.0878 113.754 27.0855C114.535 27.0904 115.303 26.8851 115.977 26.4911C116.674 26.089 117.243 25.4988 117.62 24.7881C118.021 23.9572 118.23 23.0464 118.23 22.1237C118.23 21.201 118.021 20.2902 117.62 19.4592L117.63 19.4393Z" fill="#1E1E1E"/>
<path d="M140.304 15.347C141.535 16.6155 142.153 18.3868 142.156 20.6609V30.5545H137.901V21.2402C137.978 20.1197 137.62 19.0126 136.902 18.1488C136.549 17.7831 136.122 17.4972 135.649 17.3103C135.176 17.1233 134.668 17.0397 134.161 17.065C133.646 17.0387 133.131 17.1217 132.651 17.3085C132.171 17.4953 131.736 17.7817 131.374 18.1488C130.652 19.0105 130.294 20.1191 130.375 21.2402V30.5545H126.11V13.6889H130.375V15.7865C130.953 15.0484 131.7 14.4594 132.552 14.0685C133.463 13.6473 134.456 13.4341 135.459 13.4442C136.354 13.41 137.247 13.5614 138.08 13.8889C138.914 14.2164 139.671 14.7128 140.304 15.347Z" fill="#1E1E1E"/>
<path d="M155.641 14.1596C156.532 14.6128 157.3 15.2761 157.878 16.0924V13.6901H162.168V30.6706C162.194 32.1212 161.87 33.5566 161.224 34.8558C160.591 36.0889 159.605 37.1058 158.393 37.7774C156.993 38.5352 155.418 38.9092 153.828 38.8612C151.431 38.8612 149.466 38.3035 147.935 37.1881C147.193 36.6635 146.575 35.9823 146.125 35.1926C145.676 34.403 145.405 33.5242 145.333 32.6184H149.563C149.792 33.3953 150.31 34.0548 151.011 34.4612C151.827 34.9365 152.759 35.1735 153.703 35.1455C154.809 35.1878 155.887 34.789 156.7 34.0367C157.469 33.2926 157.858 32.1739 157.858 30.6706V28.0486C157.27 28.8836 156.493 29.568 155.591 30.0463C154.573 30.5839 153.436 30.8553 152.285 30.8354C150.908 30.8486 149.557 30.4692 148.389 29.7417C147.192 28.9885 146.228 27.9184 145.602 26.6502C144.908 25.2237 144.565 23.6516 144.603 22.0655C144.567 20.4956 144.91 18.9401 145.602 17.5307C146.223 16.2762 147.184 15.2208 148.374 14.4842C149.552 13.771 150.907 13.4025 152.285 13.4205C153.447 13.3898 154.599 13.6435 155.641 14.1596ZM157.284 19.4585C156.905 18.749 156.336 18.1591 155.641 17.7555C154.966 17.3626 154.199 17.1574 153.418 17.1611C152.649 17.1531 151.891 17.3533 151.226 17.7405C150.537 18.1432 149.972 18.7271 149.593 19.4285C149.161 20.2372 148.946 21.144 148.968 22.0605C148.948 22.9879 149.163 23.9054 149.593 24.7274C149.973 25.4488 150.543 26.0531 151.241 26.4754C151.896 26.8769 152.65 27.0879 153.418 27.0847C154.199 27.0884 154.966 26.8832 155.641 26.4904C156.336 26.0867 156.905 25.4969 157.284 24.7874C157.685 23.9564 157.893 23.0457 157.893 22.1229C157.893 21.2002 157.685 20.2894 157.284 19.4585Z" fill="#1E1E1E"/>
<path d="M165.829 17.5064C166.45 16.2519 167.41 15.1965 168.601 14.4599C169.781 13.7473 171.138 13.3788 172.516 13.3961C173.663 13.3715 174.797 13.6323 175.818 14.1553C176.706 14.6185 177.481 15.2736 178.085 16.0731V13.6908H182.38V30.5564H178.085V28.0942C177.495 28.919 176.718 29.5918 175.818 30.057C174.787 30.5876 173.64 30.8536 172.481 30.8311C171.11 30.8442 169.764 30.4647 168.601 29.7373C167.411 28.9805 166.452 27.911 165.829 26.6459C165.135 25.2193 164.792 23.6472 164.83 22.0612C164.791 20.4845 165.133 18.9218 165.829 17.5064ZM177.476 19.4392C177.102 18.7392 176.542 18.1565 175.858 17.7561C175.183 17.3626 174.416 17.1574 173.635 17.1618C172.865 17.1538 172.108 17.3539 171.443 17.7411C170.755 18.1439 170.192 18.7279 169.814 19.4292C169.38 20.2369 169.165 21.1444 169.19 22.0612C169.167 22.9888 169.382 23.9069 169.814 24.7281C170.194 25.4489 170.762 26.053 171.458 26.4761C172.113 26.8775 172.867 27.0885 173.635 27.0854C174.415 27.0913 175.183 26.8878 175.858 26.4961C176.554 26.0939 177.124 25.5037 177.501 24.793C177.902 23.9621 178.11 23.0513 178.11 22.1286C178.11 21.2059 177.902 20.2951 177.501 19.4642L177.476 19.4392Z" fill="#1E1E1E"/>
<path d="M200.145 15.347C201.383 16.6155 202.003 18.3868 202.003 20.6609V30.5545H197.743V21.2402C197.819 20.1197 197.462 19.0126 196.744 18.1488C196.39 17.7833 195.963 17.4976 195.49 17.3107C195.017 17.1238 194.51 17.04 194.002 17.065C193.487 17.0387 192.973 17.1217 192.492 17.3085C192.012 17.4953 191.577 17.7817 191.215 18.1488C190.494 19.0105 190.135 20.1191 190.216 21.2402V30.5545H185.951V13.6889H190.216V15.7865C190.794 15.0473 191.541 14.4581 192.394 14.0685C193.304 13.6468 194.297 13.4336 195.3 13.4442C196.195 13.41 197.088 13.5614 197.922 13.8889C198.755 14.2164 199.512 14.7128 200.145 15.347Z" fill="#1E1E1E"/>
<defs>
<linearGradient id="paint0_linear_5590_63539" x1="2.04764" y1="2.15504" x2="38.266" y2="37.9638" gradientUnits="userSpaceOnUse">
<stop stop-color="#F70016"/>
<stop offset="1" stop-color="#970009"/>
</linearGradient>
<linearGradient id="paint1_linear_5590_63539" x1="-1.81781" y1="6.0656" x2="34.3955" y2="41.8744" gradientUnits="userSpaceOnUse">
<stop stop-color="#F70016"/>
<stop offset="1" stop-color="#970009"/>
</linearGradient>
<linearGradient id="paint2_linear_5590_63539" x1="4.88935" y1="-0.719418" x2="41.1077" y2="35.0844" gradientUnits="userSpaceOnUse">
<stop stop-color="#F70016"/>
<stop offset="1" stop-color="#970009"/>
</linearGradient>
<linearGradient id="paint3_linear_5590_63539" x1="2.19771" y1="2.00314" x2="38.4111" y2="37.812" gradientUnits="userSpaceOnUse">
<stop stop-color="#F70016"/>
<stop offset="1" stop-color="#970009"/>
</linearGradient>
<linearGradient id="paint4_linear_5590_63539" x1="-10.2882" y1="14.6282" x2="25.9302" y2="50.437" gradientUnits="userSpaceOnUse">
<stop stop-color="#F70016"/>
<stop offset="1" stop-color="#970009"/>
</linearGradient>
<linearGradient id="paint5_linear_5590_63539" x1="2.16729" y1="2.03546" x2="38.3806" y2="37.8443" gradientUnits="userSpaceOnUse">
<stop stop-color="#F70016"/>
<stop offset="1" stop-color="#970009"/>
</linearGradient>
<linearGradient id="paint6_linear_5590_63539" x1="12.376" y1="-8.28869" x2="48.5894" y2="27.5201" gradientUnits="userSpaceOnUse">
<stop stop-color="#F70016"/>
<stop offset="1" stop-color="#970009"/>
</linearGradient>
<linearGradient id="paint7_linear_5590_63539" x1="1.94774" y1="2.25738" x2="38.1611" y2="38.0662" gradientUnits="userSpaceOnUse">
<stop stop-color="#F70016"/>
<stop offset="1" stop-color="#970009"/>
</linearGradient>
<linearGradient id="paint8_linear_5590_63539" x1="2.22792" y1="1.97648" x2="38.4413" y2="37.7852" gradientUnits="userSpaceOnUse">
<stop stop-color="#F70016"/>
<stop offset="1" stop-color="#970009"/>
</linearGradient>
</defs>
</svg>
