<svg width="406" height="82" viewBox="0 0 406 82" fill="none" xmlns="http://www.w3.org/2000/svg">
<path d="M0.900005 19.51C1.0706 24.554 3.09672 29.3575 6.59 33L7.34 33.75L12.18 38.6H29.18C28.5109 37.5201 28.1672 36.2702 28.19 35V34.6C28.184 33.3228 28.5241 32.0678 29.1742 30.9683C29.8242 29.8689 30.76 28.9661 31.882 28.3559C33.004 27.7456 34.2704 27.4507 35.5466 27.5025C36.8228 27.5543 38.0611 27.9509 39.13 28.65L39.36 28.81V13.14L33.27 7.06001C31.3416 5.12608 29.0482 3.5945 26.523 2.55421C23.9978 1.51391 21.2911 0.98562 18.56 1.00001C13.8795 1.00527 9.39165 2.86419 6.07829 6.17005C2.76494 9.47591 0.895868 13.9595 0.880005 18.64C0.880005 18.89 0.880005 19.14 0.880005 19.38C0.891666 19.4224 0.898377 19.4661 0.900005 19.51Z" fill="white"/>
<path d="M33.26 49.55C32.9524 49.5488 32.652 49.4566 32.3965 49.2851C32.1411 49.1137 31.9421 48.8705 31.8246 48.5862C31.707 48.3019 31.6761 47.9892 31.7358 47.6874C31.7955 47.3856 31.9431 47.1081 32.16 46.89L37.33 41.73H15.33L39.33 65.73V44.1L34.33 49.1C34.0428 49.3795 33.6606 49.5402 33.26 49.55Z" fill="white"/>
<path d="M45.19 38.53H46.66C47.1725 38.5313 47.6803 38.4314 48.154 38.2358C48.6278 38.0403 49.0583 37.7531 49.4207 37.3907C49.7831 37.0283 50.0703 36.5978 50.2658 36.124C50.4614 35.6503 50.5613 35.1425 50.56 34.63C50.5514 33.8836 50.3341 33.1545 49.9327 32.5251C49.5313 31.8958 48.9618 31.3913 48.2887 31.0688C47.6155 30.7462 46.8655 30.6185 46.1235 30.7C45.3815 30.7815 44.6771 31.069 44.09 31.53C43.97 31.64 43.84 31.76 43.73 31.88C42.9467 32.7296 42.5144 33.8444 42.52 35V35.83C42.5147 36.1835 42.5799 36.5345 42.7118 36.8626C42.8437 37.1906 43.0397 37.489 43.2883 37.7404C43.5369 37.9918 43.8331 38.1911 44.1597 38.3267C44.4862 38.4623 44.8365 38.5314 45.19 38.53Z" fill="white"/>
<path d="M37.89 31.63C37.3111 31.1412 36.6053 30.827 35.8547 30.7237C35.1041 30.6205 34.3396 30.7325 33.6502 31.0468C32.9608 31.3611 32.3749 31.8648 31.9606 32.4991C31.5463 33.1335 31.3207 33.8724 31.31 34.63C31.31 35.659 31.7188 36.6459 32.4464 37.3736C33.1741 38.1012 34.161 38.51 35.19 38.51H36.69C37.3981 38.51 38.0773 38.2287 38.578 37.728C39.0787 37.2273 39.36 36.5481 39.36 35.84V34.91C39.3601 34.3269 39.2454 33.7495 39.0223 33.2107C38.7993 32.6719 38.4723 32.1824 38.06 31.77L37.89 31.63Z" fill="white"/>
<path d="M4.14 34.91C2.87626 33.5722 1.78141 32.0844 0.880005 30.48V63.36C0.895868 68.0405 2.76494 72.5241 6.07829 75.83C9.39165 79.1358 13.8795 80.9947 18.56 81C21.3882 81.0106 24.1884 80.439 26.7861 79.3207C29.3839 78.2025 31.7238 76.5615 33.66 74.5L38.66 69.5L4.14 34.91Z" fill="white"/>
<path d="M44.59 41.73L49.76 46.89C49.9054 47.0349 50.0208 47.2071 50.0996 47.3968C50.1783 47.5864 50.2188 47.7897 50.2188 47.995C50.2188 48.2003 50.1783 48.4036 50.0996 48.5932C50.0208 48.7829 49.9054 48.9551 49.76 49.1C49.4628 49.3889 49.0645 49.5504 48.65 49.55C48.2385 49.5499 47.8435 49.3883 47.55 49.1L42.48 44V65.71L66.48 41.71L44.59 41.73Z" fill="white"/>
<path d="M67.26 1.33001C63.9145 0.67834 60.4601 0.859193 57.2009 1.85665C53.9417 2.85411 50.9778 4.63758 48.57 7.05001L42.48 13.14V28.84L42.75 28.65C43.8188 27.9535 45.056 27.5592 46.3307 27.5088C47.6054 27.4584 48.87 27.7538 49.9904 28.3637C51.1108 28.9736 52.0453 29.8753 52.6949 30.9732C53.3444 32.0712 53.6848 33.3244 53.68 34.6V35C53.681 36.2956 53.3058 37.5636 52.6 38.65H69.6L74.87 33.38C77.2803 30.9707 79.0622 28.0067 80.0596 24.748C81.0569 21.4892 81.239 18.0355 80.59 14.69C79.45 8.46001 73.46 2.47001 67.26 1.33001Z" fill="white"/>
<path d="M43.12 69.5L48.57 74.94C50.9788 77.351 53.9428 79.1335 57.2017 80.1308C60.4605 81.1282 63.9145 81.3099 67.26 80.66C73.41 79.53 79.45 73.48 80.59 67.33C81.2404 63.9837 81.058 60.5287 80.0588 57.2695C79.0595 54.0103 77.2742 51.0468 74.86 48.64L69.42 43.19L43.12 69.5Z" fill="white"/>
<path d="M40.96 41.86C41.921 41.86 42.7 41.081 42.7 40.12C42.7 39.159 41.921 38.38 40.96 38.38C39.999 38.38 39.22 39.159 39.22 40.12C39.22 41.081 39.999 41.86 40.96 41.86Z" fill="white"/>
<path d="M125.46 62.13L109.98 43.13V62.13H101.44V19.58H110V38.66L125.48 19.58H135.79L118.21 40.67L136.21 62.13H125.46Z" fill="white"/>
<path d="M168.49 47.81H143.8C143.876 49.9802 144.794 52.0355 146.36 53.54C147.871 54.9246 149.861 55.667 151.91 55.61C153.316 55.6891 154.714 55.342 155.92 54.6141C157.126 53.8862 158.085 52.8113 158.67 51.53H167.88C166.927 54.7346 164.958 57.5425 162.27 59.53C159.323 61.6852 155.739 62.7907 152.09 62.67C149.036 62.7193 146.021 61.9751 143.34 60.51C140.796 59.0806 138.715 56.9536 137.34 54.38C135.858 51.5653 135.115 48.4204 135.18 45.24C135.092 42.0336 135.81 38.8563 137.27 36C138.635 33.4273 140.72 31.3077 143.27 29.9C145.97 28.5106 148.961 27.7808 151.998 27.7704C155.034 27.7599 158.03 28.4692 160.74 29.84C163.239 31.1844 165.293 33.2276 166.65 35.72C168.085 38.4096 168.808 41.4219 168.75 44.47C168.754 45.5885 168.667 46.7056 168.49 47.81ZM159.89 42.08C159.909 41.0786 159.706 40.0853 159.294 39.1722C158.882 38.2591 158.273 37.4488 157.51 36.8C155.931 35.4574 153.912 34.7452 151.84 34.8C149.885 34.7434 147.98 35.4294 146.51 36.72C145.006 38.1178 144.063 40.0166 143.86 42.06L159.89 42.08Z" fill="white"/>
<path d="M202.41 31.68C204.89 34.22 206.13 37.7667 206.13 42.32V62.13H197.6V43.48C197.754 41.2363 197.037 39.0196 195.6 37.29C194.894 36.5585 194.04 35.9865 193.095 35.6122C192.15 35.238 191.135 35.0701 190.12 35.12C189.089 35.0674 188.059 35.2335 187.098 35.6075C186.136 35.9815 185.264 36.5549 184.54 37.29C183.073 39.0058 182.338 41.228 182.49 43.48V62.13H173.96V28.36H182.49V32.56C183.651 31.0844 185.145 29.9054 186.85 29.12C188.676 28.2756 190.668 27.8486 192.68 27.87C194.477 27.7974 196.27 28.0985 197.945 28.7544C199.619 29.4102 201.14 30.4064 202.41 31.68Z" fill="white"/>
<path d="M213.09 36C214.334 33.4881 216.256 31.3748 218.64 29.9C221.004 28.4731 223.719 27.7353 226.48 27.77C228.775 27.7193 231.047 28.2417 233.09 29.29C234.871 30.2147 236.423 31.5269 237.63 33.13V28.36H246.23V62.13H237.63V57.2C236.452 58.8538 234.896 60.2014 233.09 61.13C231.03 62.1932 228.738 62.7259 226.42 62.68C223.671 62.7077 220.971 61.9477 218.64 60.49C216.258 58.9745 214.338 56.8331 213.09 54.3C211.7 51.4436 211.014 48.2958 211.09 45.12C211.011 41.9631 211.697 38.834 213.09 36ZM236.41 39.87C235.655 38.447 234.515 37.2653 233.12 36.46C231.77 35.6712 230.233 35.2601 228.67 35.27C227.129 35.2554 225.613 35.6561 224.28 36.43C222.891 37.2446 221.756 38.4285 221 39.85C220.135 41.4691 219.704 43.2848 219.75 45.12C219.709 46.977 220.139 48.8141 221 50.46C221.759 51.9032 222.897 53.1129 224.29 53.96C225.602 54.7624 227.112 55.1847 228.65 55.18C230.213 55.1899 231.75 54.7788 233.1 53.99C234.495 53.1847 235.635 52.003 236.39 50.58C237.193 48.9162 237.611 47.0925 237.611 45.245C237.611 43.3975 237.193 41.5738 236.39 39.91L236.41 39.87Z" fill="white"/>
<path d="M281.81 31.68C284.277 34.22 285.513 37.7667 285.52 42.32V62.13H277V43.48C277.154 41.2363 276.437 39.0196 275 37.29C274.293 36.5578 273.437 35.9853 272.49 35.611C271.543 35.2368 270.527 35.0693 269.51 35.12C268.479 35.0674 267.449 35.2335 266.488 35.6075C265.526 35.9815 264.654 36.5549 263.93 37.29C262.485 39.0155 261.768 41.2353 261.93 43.48V62.13H253.39V28.36H261.93V32.56C263.088 31.0822 264.583 29.9028 266.29 29.12C268.113 28.2768 270.101 27.8498 272.11 27.87C273.902 27.8016 275.689 28.1048 277.358 28.7605C279.028 29.4161 280.543 30.4102 281.81 31.68Z" fill="white"/>
<path d="M312.52 29.3C314.305 30.2074 315.843 31.5356 317 33.17V28.36H325.59V62.36C325.641 65.2645 324.993 68.1387 323.7 70.74C322.432 73.209 320.458 75.2452 318.03 76.59C315.228 78.1074 312.075 78.8561 308.89 78.76C304.09 78.76 300.157 77.6433 297.09 75.41C295.604 74.3596 294.368 72.9956 293.467 71.4144C292.567 69.8333 292.025 68.0737 291.88 66.26H300.35C300.809 67.8157 301.847 69.1362 303.25 69.95C304.883 70.9016 306.751 71.3762 308.64 71.32C310.855 71.4048 313.013 70.6063 314.64 69.1C316.18 67.61 316.96 65.37 316.96 62.36V57.11C315.782 58.7819 314.227 60.1523 312.42 61.11C310.382 62.1864 308.105 62.7299 305.8 62.69C303.045 62.7165 300.339 61.9568 298 60.5C295.604 58.9919 293.672 56.8493 292.42 54.31C291.03 51.4536 290.344 48.3058 290.42 45.13C290.347 41.9866 291.033 38.8719 292.42 36.05C293.664 33.5381 295.586 31.4248 297.97 29.95C300.33 28.5219 303.042 27.784 305.8 27.82C308.127 27.7586 310.434 28.2667 312.52 29.3ZM315.81 39.91C315.052 38.4893 313.913 37.3083 312.52 36.5C311.169 35.7135 309.633 35.3026 308.07 35.31C306.529 35.2939 305.012 35.6947 303.68 36.47C302.301 37.2763 301.17 38.4454 300.41 39.85C299.545 41.4691 299.114 43.2848 299.16 45.12C299.119 46.977 299.549 48.8141 300.41 50.46C301.172 51.9045 302.313 53.1144 303.71 53.96C305.022 54.7638 306.532 55.1863 308.07 55.18C309.633 55.1874 311.169 54.7765 312.52 53.99C313.913 53.1817 315.052 52.0007 315.81 50.58C316.613 48.9162 317.031 47.0926 317.031 45.245C317.031 43.3975 316.613 41.5738 315.81 39.91Z" fill="white"/>
<path d="M332.92 36C334.164 33.488 336.086 31.3748 338.47 29.9C340.834 28.4731 343.549 27.7353 346.31 27.77C348.605 27.7206 350.877 28.2429 352.92 29.29C354.699 30.2175 356.25 31.5292 357.46 33.13V28.36H366.06V62.13H357.46V57.2C356.28 58.8514 354.724 60.1985 352.92 61.13C350.856 62.1924 348.561 62.7251 346.24 62.68C343.494 62.7063 340.798 61.9464 338.47 60.49C336.087 58.9745 334.168 56.8331 332.92 54.3C331.53 51.4436 330.844 48.2958 330.92 45.12C330.841 41.9631 331.527 38.834 332.92 36ZM356.24 39.87C355.493 38.4684 354.371 37.3018 353 36.5C351.65 35.7121 350.113 35.3011 348.55 35.31C347.009 35.2939 345.492 35.6947 344.16 36.47C342.784 37.2765 341.656 38.4458 340.9 39.85C340.03 41.4673 339.599 43.2843 339.65 45.12C339.604 46.9775 340.035 48.8158 340.9 50.46C341.659 51.9032 342.796 53.1129 344.19 53.96C345.502 54.7638 347.012 55.1863 348.55 55.18C350.112 55.1919 351.649 54.7844 353 54C354.395 53.1947 355.535 52.0129 356.29 50.59C357.093 48.9262 357.511 47.1025 357.511 45.255C357.511 43.4074 357.093 41.5838 356.29 39.92L356.24 39.87Z" fill="white"/>
<path d="M401.63 31.68C404.11 34.22 405.35 37.7667 405.35 42.32V62.13H396.82V43.48C396.974 41.2363 396.257 39.0196 394.82 37.29C394.112 36.5583 393.256 35.9862 392.309 35.612C391.363 35.2377 390.347 35.07 389.33 35.12C388.299 35.0674 387.269 35.2335 386.308 35.6075C385.346 35.9815 384.474 36.5549 383.75 37.29C382.305 39.0155 381.588 41.2353 381.75 43.48V62.13H373.21V28.36H381.75V32.56C382.906 31.08 384.402 29.9001 386.11 29.12C387.933 28.2758 389.921 27.8488 391.93 27.87C393.722 27.8016 395.509 28.1048 397.178 28.7605C398.848 29.4161 400.363 30.4102 401.63 31.68Z" fill="white"/>
</svg>
