<svg data-v-0dd9719b="" version="1.0" xmlns="http://www.w3.org/2000/svg" xmlns:xlink="http://www.w3.org/1999/xlink" width="100%" height="100%" viewBox="0 0 340.000000 250.000000" preserveAspectRatio="xMidYMid meet" color-interpolation-filters="sRGB" style="margin: auto;"> <rect data-v-0dd9719b="" x="0" y="0" width="100%" height="100%" fill="#ffffff" fill-opacity="1" class="background"></rect> <rect data-v-0dd9719b="" x="0" y="0" width="100%" height="100%" fill="url(#watermark)" fill-opacity="1" class="watermarklayer"></rect> <g data-v-0dd9719b="" fill="#221e1f" class="basesvg" transform="translate(97.04000091552734,97.54999923706055)"><g data-gra="path-name" fill-rule="" class="tp-name"><g transform="scale(1)"><g><path d="M31.68-12L31.68-12Q31.68-9.06 30.72-6.69 29.76-4.32 27.99-2.67 26.22-1.02 23.7-0.12 21.18 0.78 18.06 0.78L18.06 0.78Q13.08 0.78 9.18-0.81 5.28-2.4 2.76-4.44L2.76-4.44 7.74-9.42Q9.72-7.62 12.18-6.66L12.18-6.66Q13.68-6.06 15-5.88 16.32-5.7 17.16-5.7L17.16-5.7Q18.72-5.7 20.01-6.09 21.3-6.48 22.26-7.14L22.26-7.14Q24.3-8.64 24.3-11.1L24.3-11.1Q24.3-12.6 23.22-13.8L23.22-13.8Q22.38-14.76 21.06-15.36L21.06-15.36Q19.98-15.96 18.78-16.32 17.58-16.68 16.62-16.98L16.62-16.98Q16.32-17.1 16.08-17.13 15.84-17.16 15.66-17.28L15.66-17.28Q15.54-17.28 15.3-17.4L15.3-17.4Q14.04-17.76 11.67-18.66 9.3-19.56 6.96-21.12L6.96-21.12Q1.5-24.78 1.5-30.12L1.5-30.12Q1.5-33.66 2.73-36.09 3.96-38.52 5.94-40.05 7.92-41.58 10.35-42.24 12.78-42.9 15.12-42.9L15.12-42.9Q19.44-42.9 22.38-41.88 25.32-40.86 27.06-39.84L27.06-39.84Q27.96-39.3 28.59-38.79 29.22-38.28 29.7-37.86L29.7-37.86 24.6-32.7Q22.98-34.32 21.3-35.16L21.3-35.16Q18.78-36.36 16.02-36.36L16.02-36.36Q14.82-36.36 13.62-36.06 12.42-35.76 11.52-35.28L11.52-35.28Q8.88-33.66 8.88-31.02L8.88-31.02Q8.88-29.4 9.96-28.26L9.96-28.26Q10.74-27.36 12.12-26.64L12.12-26.64Q13.26-26.04 14.52-25.68 15.78-25.32 16.86-25.02L16.86-25.02 17.58-24.84Q17.88-24.72 18.72-24.48 19.56-24.24 20.7-23.76 21.84-23.28 23.19-22.62 24.54-21.96 25.86-21.06L25.86-21.06Q31.68-17.22 31.68-12ZM58.86-30.06L66.06-30.06 66.06 0 58.86 0 58.86-15Q58.86-18.6 56.34-21.12L56.34-21.12Q53.82-23.64 50.22-23.64L50.22-23.64Q48.48-23.64 46.89-22.98 45.3-22.32 44.1-21.12L44.1-21.12Q41.58-18.6 41.58-15L41.58-15Q41.58-11.46 44.1-8.94L44.1-8.94Q45.3-7.68 46.89-7.05 48.48-6.42 50.22-6.42L50.22-6.42Q52.02-6.42 53.46-7.02L53.46-7.02 56.04-0.6Q53.28 0.78 49.62 0.78L49.62 0.78Q46.32 0.78 43.53-0.45 40.74-1.68 38.7-3.84 36.66-6 35.52-8.88 34.38-11.76 34.38-15L34.38-15Q34.38-18.3 35.52-21.18 36.66-24.06 38.7-26.22 40.74-28.38 43.53-29.61 46.32-30.84 49.62-30.84L49.62-30.84Q52.56-30.84 54.84-29.94 57.12-29.04 58.86-27.66L58.86-27.66 58.86-30.06ZM86.7-30.78L86.7-30.78Q90-30.78 92.79-29.55 95.58-28.32 97.62-26.16 99.66-24 100.8-21.12 101.94-18.24 101.94-14.94L101.94-14.94Q101.94-11.7 100.8-8.82 99.66-5.94 97.62-3.78 95.58-1.62 92.79-0.39 90 0.84 86.7 0.84L86.7 0.84Q83.16 0.84 80.28-0.54L80.28-0.54 82.86-6.96Q84.3-6.36 86.1-6.36L86.1-6.36Q89.76-6.36 92.22-8.88L92.22-8.88Q94.74-11.4 94.74-14.94L94.74-14.94Q94.74-18.54 92.22-21.06L92.22-21.06Q89.7-23.58 86.1-23.58L86.1-23.58Q82.62-23.58 79.98-21.06L79.98-21.06Q77.46-18.54 77.46-14.94L77.46-14.94 77.46-2.34 77.46 0.06 70.26 0.06 70.26-42 77.46-42 77.46-27.6Q79.2-28.98 81.48-29.88 83.76-30.78 86.7-30.78ZM112.44 0L105.24 0 105.24-30 112.44-30 112.44 0ZM105.24-34.8L105.24-42 112.44-42 112.44-34.8 105.24-34.8ZM140.22-30.06L147.42-30.06 147.42 12 140.22 12 140.22-2.4 140.22-15Q140.22-18.6 137.7-21.12L137.7-21.12Q135.06-23.64 131.58-23.64L131.58-23.64Q127.98-23.64 125.46-21.12L125.46-21.12Q122.94-18.6 122.94-15L122.94-15Q122.94-11.46 125.46-8.94L125.46-8.94Q126.66-7.68 128.25-7.05 129.84-6.42 131.58-6.42L131.58-6.42Q133.38-6.42 134.82-7.02L134.82-7.02 137.4-0.6Q134.52 0.78 130.98 0.78L130.98 0.78Q127.68 0.78 124.89-0.45 122.1-1.68 120.06-3.84 118.02-6 116.88-8.88 115.74-11.76 115.74-15L115.74-15Q115.74-18.3 116.88-21.18 118.02-24.06 120.06-26.22 122.1-28.38 124.89-29.61 127.68-30.84 130.98-30.84L130.98-30.84Q133.92-30.84 136.2-29.94 138.48-29.04 140.22-27.66L140.22-27.66 140.22-30.06Z" transform="translate(-1.5, 42.900001525878906)"></path></g> <!----> <!----> <!----> <!----> <!----> <!----> <!----></g></g> <!----></g><defs v-gra="od"></defs></svg>
